<svg width="295" height="255" viewBox="0 0 295 255" fill="none" xmlns="http://www.w3.org/2000/svg">
<path d="M88.5675 137.695C88.5675 137.695 78.331 131.569 67.5548 132.964C56.7786 134.359 48.9678 149.275 44.1955 148.056C39.4232 146.837 46.2502 130.409 41.7933 119.68C37.1405 108.48 19.6894 99.992 21.1895 96.227C22.6897 92.462 43.1706 102.163 50.6801 100.89C58.1896 99.6178 63.2832 91.0272 63.2832 91.0272C63.2832 91.0272 62.5485 88.9248 63.4114 87.8689C64.2103 86.8914 65.5047 86.8082 66.5934 87.4055C67.6821 88.0027 67.8371 89.9569 66.8398 90.9786C65.8426 92.0002 63.7921 91.4764 63.7921 91.4764C63.7921 91.4764 57.8138 100.421 52.0653 102.84C43.6015 106.401 28.3015 99.9588 28.3015 99.9588C28.3015 99.9588 42.0656 107.441 46.1996 116.02C50.7459 125.454 46.9193 143.008 46.9193 143.008C46.9193 143.008 57.9543 131.308 66.9617 130.259C75.0068 129.323 88.7799 136.791 88.7799 136.791C88.7799 136.791 90.1117 135.448 91.453 135.879C92.7942 136.31 93.6093 137.163 93.2763 138.579C92.9434 139.994 91.8249 140.441 90.4617 140.093C89.592 139.871 88.5675 137.695 88.5675 137.695Z" fill="url(#paint0_linear_614_360)"/>
<path d="M137.251 154.687C137.251 154.687 136.141 157.204 134.999 157.407C133.858 157.61 131.764 157.275 131.29 154.89C130.817 152.504 132.983 150.926 134.431 151.157C135.88 151.388 137.054 153.5 137.054 153.5C137.054 153.5 196.487 143.036 207.284 136.044C218.08 129.052 248.836 74.9588 246.018 71.4465C243.199 67.9343 193.214 71.2139 182.459 76.944C171.703 82.6741 131.382 136.589 131.382 136.589C131.382 136.589 132.539 140.268 131.114 141.293C129.966 142.119 128.59 141.941 127.545 140.936C126.287 139.726 126.163 137.524 127.422 136.362C128.416 135.444 130.815 136.154 130.815 136.154C130.815 136.154 159.069 72.6067 176.914 64.6494C194.759 56.6921 259.231 51.3517 262.346 61.3887C265.461 71.4257 228.765 138.411 215.486 147.154C202.208 155.896 137.251 154.687 137.251 154.687Z" fill="url(#paint1_linear_614_360)"/>
<path d="M132.015 155.005C147.447 155.93 176.578 166.05 184.078 174.097C192.087 182.69 194.675 213.13 202.487 220.537C218.777 235.982 234.937 236.882 234.937 236.882C234.937 236.882 238.333 233.275 240.975 233.612C243.733 233.963 246.361 235.797 246.165 238.675C245.956 241.731 242.945 243.065 240.016 242.698C237.601 242.395 235.024 238.821 235.024 238.821C235.024 238.821 209.084 233.982 197.283 223.171C183.105 210.181 183.348 186.684 176.898 177.57C170.448 168.456 132.015 155.005 132.015 155.005Z" fill="url(#paint2_linear_614_360)"/>
<path d="M120.443 133.688C120.443 133.688 121.316 135.227 120.934 136.106C120.529 137.038 119.623 137.601 118.684 137.289C117.609 136.931 117.175 135.455 117.75 134.448C118.232 133.604 120.029 133.602 120.029 133.602C120.029 133.602 134.868 88.423 134.448 78.415C134.029 68.407 111.662 27.3584 108.464 28.013C105.267 28.6675 89.1844 64.3273 88.8364 73.8443C88.4885 83.3614 107.279 130.938 107.279 130.938C107.279 130.938 109.977 131.49 110.096 132.849C110.192 133.943 109.583 134.826 108.581 135.178C107.376 135.601 105.967 134.878 105.703 133.584C105.495 132.562 106.804 131.169 106.804 131.169C106.804 131.169 77.6729 88.3763 79.21 73.1555C80.747 57.9348 100.803 11.5315 108.151 13.0668C115.498 14.602 143.7 64.4753 144.304 76.8368C144.908 89.1983 120.443 133.688 120.443 133.688Z" fill="url(#paint3_linear_614_360)"/>
<path d="M101.412 148.88C101.412 148.88 102.038 147.559 102.795 147.436C103.598 147.305 104.383 147.7 104.602 148.514C104.853 149.446 104.069 150.424 103.14 150.467C102.36 150.503 101.543 149.216 101.543 149.216C101.543 149.216 68.1141 159.654 61.6579 164.475C55.2017 169.296 47.6797 195.624 49.5662 197.62C51.4527 199.616 73.0538 198.694 79.5323 194.645C86.0108 190.595 105.562 159.557 105.562 159.557C105.562 159.557 104.704 157.373 105.552 156.675C106.236 156.112 107.099 156.149 107.787 156.708C108.615 157.381 108.775 158.718 108.035 159.491C107.451 160.102 105.932 159.793 105.932 159.793C105.932 159.793 92.5774 197.562 81.771 203.335C70.9646 209.108 41.4463 211.888 39.13 205.928C36.8138 199.969 47.7503 165.138 55.6856 159.121C63.6209 153.105 101.412 148.88 101.412 148.88Z" fill="url(#paint4_linear_614_360)"/>
<defs>
<linearGradient id="paint0_linear_614_360" x1="22.7805" y1="95.9954" x2="91.4419" y2="135.404" gradientUnits="userSpaceOnUse">
<stop offset="0.208646" stop-color="#3F0753"/>
<stop offset="0.431364" stop-color="#6F00C6"/>
<stop offset="0.599967" stop-color="#D62BDA"/>
<stop offset="0.767883" stop-color="#E5DBFE"/>
<stop offset="1" stop-color="#E5E0FF"/>
</linearGradient>
<linearGradient id="paint1_linear_614_360" x1="256.057" y1="64.713" x2="126.232" y2="141.285" gradientUnits="userSpaceOnUse">
<stop offset="0.195096" stop-color="#3F0753"/>
<stop offset="0.386546" stop-color="#6F00C6"/>
<stop offset="0.587726" stop-color="#D62BDA"/>
<stop offset="0.755222" stop-color="#E5DBFE"/>
<stop offset="0.903392" stop-color="#E1D7FA" stop-opacity="0.996078"/>
</linearGradient>
<linearGradient id="paint2_linear_614_360" x1="243.377" y1="237.46" x2="124.458" y2="154.802" gradientUnits="userSpaceOnUse">
<stop offset="0.210141" stop-color="#3F0753"/>
<stop offset="0.344525" stop-color="#6F00C6"/>
<stop offset="0.54175" stop-color="#D62BDA"/>
<stop offset="0.729178" stop-color="#E1D7FA" stop-opacity="0.996078"/>
<stop offset="0.865" stop-color="#E0D6F9" stop-opacity="0.996078"/>
</linearGradient>
<linearGradient id="paint3_linear_614_360" x1="108.09" y1="24.9586" x2="112.719" y2="136.003" gradientUnits="userSpaceOnUse">
<stop offset="0.14843" stop-color="#3F0753"/>
<stop offset="0.415673" stop-color="#6F00C6"/>
<stop offset="0.580474" stop-color="#D62BDA"/>
<stop offset="0.795976" stop-color="#E5DBFE"/>
</linearGradient>
<linearGradient id="paint4_linear_614_360" x1="39.6479" y1="207.154" x2="118.703" y2="150.808" gradientUnits="userSpaceOnUse">
<stop offset="0.15623" stop-color="#3F0753"/>
<stop offset="0.38414" stop-color="#6F00C6"/>
<stop offset="0.561942" stop-color="#D62BDA"/>
<stop offset="0.725204" stop-color="#E5DBFE"/>
</linearGradient>
</defs>
</svg>
